PathFileType	4	(X/Y/Z)	/Users/itak/Documents/Research/Walk-IL/dataset/trc/00532_00183.trc
DataRate	CameraRate	NumFrames	NumMarkers	Units	OrigDataRate	OrigDataStartFrame	OrigNumFrames
100.000000	100.000000	4	53	mm	100.000000	309	495
Frame#	Time	RPSI			LPSI			L3			STRN			T10			C7			CLAV			RBAK			LBAK			LSHO			LUPA			LAEL			LAOL			LWTS			LWPS			LFRA			LIFD			LHPS			LHTS			RSHO			RUPA			RAEL			RAOL			RWTS			RWPS			RFRA			RIFD			RHTS			RHPS			RBHD			LFHD			RFHD			LBHD			LHIP			RHIP			RASI			LASI			LKNE			LTHI			LANK			LTIP			LTOE			LMT1			LMT5			LHEE			RKNE			RTHI			RANK			RTIP			RTOE			RMT1			RMT5			RHEE			
		X1	Y1	Z1	X2	Y2	Z2	X3	Y3	Z3	X4	Y4	Z4	X5	Y5	Z5	X6	Y6	Z6	X7	Y7	Z7	X8	Y8	Z8	X9	Y9	Z9	X10	Y10	Z10	X11	Y11	Z11	X12	Y12	Z12	X13	Y13	Z13	X14	Y14	Z14	X15	Y15	Z15	X16	Y16	Z16	X17	Y17	Z17	X18	Y18	Z18	X19	Y19	Z19	X20	Y20	Z20	X21	Y21	Z21	X22	Y22	Z22	X23	Y23	Z23	X24	Y24	Z24	X25	Y25	Z25	X26	Y26	Z26	X27	Y27	Z27	X28	Y28	Z28	X29	Y29	Z29	X30	Y30	Z30	X31	Y31	Z31	X32	Y32	Z32	X33	Y33	Z33	X34	Y34	Z34	X35	Y35	Z35	X36	Y36	Z36	X37	Y37	Z37	X38	Y38	Z38	X39	Y39	Z39	X40	Y40	Z40	X41	Y41	Z41	X42	Y42	Z42	X43	Y43	Z43	X44	Y44	Z44	X45	Y45	Z45	X46	Y46	Z46	X47	Y47	Z47	X48	Y48	Z48	X49	Y49	Z49	X50	Y50	Z50	X51	Y51	Z51	X52	Y52	Z52	X53	Y53	Z53	

310	3.09	230.1910095214844	944.7600708007812	310.4617004394531	277.9054260253906	931.4427490234375	196.9460144042969	248.805908203125	1013.45361328125	243.6141815185547	445.4928894042969	1188.225830078125	315.0765991210938	230.7717132568359	1118.284301757812	242.4503631591797	256.9008483886719	1350.719970703125	256.1254577636719	406.3340148925781	1280.949340820312	303.3517150878906	190.3597259521484	1225.749877929688	321.615234375	262.902587890625	1296.309814453125	165.6814880371094	373.1255798339844	1349.133178710938	125.3719329833984	386.4275817871094	1222.775390625	64.17601013183594	413.7213134765625	1014.072021484375	42.71743011474609	325.8474731445312	1000.782592773438	87.41158294677734	495.2874450683594	831.0916748046875	97.65593719482422	431.6543273925781	792.0451049804688	40.63338088989258	432.9142150878906	930.5786743164062	44.53535461425781	503.7171630859375	674.0230102539062	108.9532318115234	456.7152099609375	739.5291137695312	51.34554672241211	512.3726806640625	753.6192626953125	81.242431640625	260.953369140625	1345.796630859375	413.6089477539062	225.3940734863281	1278.373291015625	459.9076843261719	202.3592681884766	1012.798278808594	501.0543212890625	175.6347503662109	997.8633422851562	441.8002014160156	292.4092102050781	809.2364501953125	534.4296264648438	203.5941619873047	790.1550903320312	522.7308349609375	200.0229797363281	959.3282470703125	509.9577026367188	283.0874633789062	648.9640502929688	543.3176879882812	283.872802734375	716.756591796875	564.910400390625	217.8487854003906	716.6400756835938	539.3968505859375	283.0125427246094	1509.6142578125	363.9705810546875	462.035888671875	1557.05126953125	287.5615539550781	410.9759216308594	1542.894897460938	403.1972045898438	334.2798156738281	1526.037841796875	211.7572021484375	434.9446105957031	862.272705078125	125.9931106567383	287.9452514648438	861.9132690429688	473.9981689453125	401.0422058105469	915.8350830078125	447.5626525878906	487.1292419433594	913.6368408203125	221.8695983886719	560.4094848632812	465.1028442382812	229.0641632080078	525.8438720703125	616.0928955078125	190.6123809814453	250.699462890625	207.3640441894531	100.8722457885742	473.8826293945312	364.599365234375	186.927978515625	342.4563903808594	48.23408126831055	178.0633087158203	286.7937927246094	99.77042388916016	200.4527893066406	311.8666076660156	119.859504699707	100.4795074462891	203.9533233642578	233.850341796875	153.0505218505859	373.4291687011719	475.5830078125	441.073974609375	330.2063903808594	733.1232299804688	486.6077270507812	326.7158508300781	46.47711563110352	372.2994384765625	392.80078125	329.4209899902344	423.6767272949219	528.5841064453125	36.04143142700195	424.5712890625	484.3379821777344	41.26116561889648	360.6918640136719	421.4575805664062	39.94560623168945	434.4048767089844	303.0456848144531	36.99879837036133	306.5937805175781	
311	3.1	237.1734771728516	945.0859985351562	314.1891784667969	284.96142578125	931.94580078125	200.7421875	255.7598571777344	1014.142639160156	247.8850250244141	452.495849609375	1189.10302734375	319.1535949707031	237.6611938476562	1118.939453125	246.9106750488281	263.8878173828125	1351.410888671875	260.2794494628906	413.2156982421875	1281.7626953125	307.255859375	197.5149688720703	1226.485595703125	326.3158569335938	269.6195068359375	1296.923706054688	169.9629516601562	379.7685852050781	1349.595581054688	129.2629852294922	392.4336547851562	1223.1953125	68.06496429443359	418.7444458007812	1014.338623046875	46.95082092285156	330.8362426757812	1001.5283203125	91.90705871582031	499.4685668945312	830.8329467773438	101.9807052612305	435.5985107421875	792.0178833007812	45.00696563720703	437.5141296386719	930.7766723632812	48.77439498901367	506.8804626464844	673.7228393554688	113.7033309936523	460.399169921875	739.4055786132812	55.79602813720703	516.0908203125	753.1732177734375	85.73783111572266	268.2730102539062	1346.911865234375	417.6729125976562	233.1259307861328	1279.622436523438	464.575927734375	212.9217529296875	1014.065795898438	507.8943481445312	185.3991088867188	998.353759765625	449.2793579101562	305.70947265625	811.77490234375	541.801513671875	216.9829254150391	791.6966552734375	531.6695556640625	211.3595123291016	960.560546875	517.2276000976562	298.1908874511719	651.545654296875	552.5112915039062	298.5814514160156	719.5602416992188	573.4261474609375	232.1566162109375	718.5537719726562	548.95947265625	290.8162231445312	1510.545166015625	368.0823974609375	470.011474609375	1557.052612304688	291.3941040039062	419.0762329101562	1543.01123046875	407.1192626953125	341.9698791503906	1526.88671875	215.7834014892578	442.7042541503906	863.679931640625	130.1624908447266	294.4616088867188	862.0908203125	477.8775634765625	407.5242004394531	916.1902465820312	451.9306945800781	494.0105895996094	915.0000610351562	226.4437713623047	575.146240234375	469.4845275878906	237.3063201904297	537.80615234375	619.5462646484375	196.8218383789062	272.6559143066406	200.9451293945312	111.9704895019531	490.8817443847656	366.2286682128906	196.2984771728516	372.6177978515625	48.31847381591797	191.6645965576172	314.0857849121094	96.85997772216797	213.2376556396484	338.2570495605469	116.8076171875	113.0254516601562	224.4331665039062	225.6528015136719	163.7443695068359	376.5868835449219	475.174560546875	443.3268432617188	336.5671081542969	733.1439819335938	490.1435852050781	326.7662353515625	46.50849914550781	372.3406677246094	394.5617980957031	328.9983520507812	424.8985595703125	528.6034545898438	35.99513244628906	424.6054077148438	484.3261413574219	41.25112533569336	360.7589111328125	421.4638671875	39.83348846435547	434.493408203125	302.9544982910156	37.29732131958008	306.6556396484375	
312	3.11	244.154296875	945.3358154296875	317.8015441894531	292.073486328125	932.3513793945312	204.4219665527344	262.7784423828125	1014.720092773438	252.1587371826172	459.4703979492188	1189.893798828125	323.2607727050781	244.58837890625	1119.475830078125	251.3235626220703	270.8211975097656	1351.9794921875	264.3966369628906	420.0686950683594	1282.493530273438	311.180908203125	204.6115875244141	1227.102416992188	330.9353332519531	276.3320617675781	1297.420654296875	174.2112731933594	386.4192199707031	1349.949584960938	133.1436614990234	398.4148559570312	1223.506103515625	71.94024658203125	423.7155456542969	1014.5107421875	51.05620956420898	335.8100891113281	1002.161987304688	96.34590911865234	503.6719360351562	830.5113525390625	106.1040344238281	439.5438537597656	791.9359741210938	49.23505401611328	442.0805969238281	930.8674926757812	52.8648796081543	510.1656188964844	673.3787231445312	118.2425079345703	464.0682067871094	739.2037353515625	60.11734771728516	519.8397827148438	752.6987915039062	90.02696228027344	275.4651489257812	1347.894165039062	421.6978454589844	240.6805725097656	1280.730224609375	469.1367797851562	223.2475433349609	1015.242736816406	514.5780639648438	195.1017303466797	998.6796875	456.5844421386719	319.0357971191406	814.388427734375	549.0537719726562	230.4634399414062	793.1574096679688	540.4977416992188	222.5167236328125	961.6950073242188	524.3499145507812	313.73291015625	654.2412719726562	561.5347290039062	313.54638671875	722.4578247070312	581.7731323242188	246.755859375	720.418701171875	558.3525390625	298.5890502929688	1511.44482421875	372.0596313476562	477.9382629394531	1556.93017578125	295.0720825195312	427.1393127441406	1543.109619140625	410.9031372070312	349.6039123535156	1527.6083984375	219.6945648193359	450.5254211425781	865.0090942382812	134.2910614013672	300.8757934570312	862.2127075195312	481.6771850585938	413.8914489746094	916.4199829101562	456.2479858398438	500.9036560058594	916.2293090820312	231.0145874023438	589.3331909179688	473.7858581542969	245.3214721679688	549.5787963867188	622.989013671875	202.9264221191406	295.1636962890625	193.4667510986328	123.2785949707031	507.6041259765625	367.3652648925781	205.4763641357422	403.3466491699219	48.16048049926758	205.5873565673828	342.0293884277344	93.48181915283203	226.331298828125	365.1644897460938	113.0603256225586	125.8282852172852	245.5104827880859	216.2675170898438	174.6935272216797	379.5563659667969	474.7462463378906	445.5953979492188	342.7325744628906	733.1052856445312	493.6251831054688	326.7981872558594	46.53383255004883	372.3905944824219	396.2079772949219	328.5857849121094	426.1459350585938	528.6163940429688	35.95681762695312	424.6417846679688	484.31884765625	41.24975967407227	360.84375	421.4702453613281	39.72003555297852	434.5860900878906	302.8364868164062	37.61592864990234	306.7317199707031	
313	3.12	251.1169128417969	945.4999389648438	321.3052978515625	299.2449035644531	932.6510620117188	207.9880218505859	269.8525085449219	1015.162231445312	256.4308166503906	466.4241333007812	1190.568725585938	327.3712463378906	251.5571136474609	1119.88525390625	255.6832427978516	277.7115478515625	1352.409790039062	268.4874572753906	426.9090576171875	1283.11181640625	315.118408203125	211.6670989990234	1227.58203125	335.4768371582031	283.0528869628906	1297.788696289062	178.4270935058594	393.0868530273438	1350.181640625	137.0122985839844	404.3896789550781	1223.690551757812	75.8095703125	428.6549987792969	1014.573547363281	55.03949356079102	340.8001098632812	1002.665832519531	100.7401885986328	507.9081726074219	830.0996704101562	110.0284042358398	443.4944152832031	791.7837524414062	53.3238410949707	446.6338195800781	930.8274536132812	56.8176155090332	513.568115234375	672.9630737304688	122.5510711669922	467.7157592773438	738.9086303710938	64.30958557128906	523.6218872070312	752.1718139648438	94.10553741455078	282.5601196289062	1348.7119140625	425.6979064941406	248.0919036865234	1281.660888671875	473.6074829101562	233.3612213134766	1016.288330078125	521.1320190429688	204.7368927001953	998.8126220703125	463.7377624511719	332.3819274902344	817.0504150390625	556.1822509765625	244.0225067138672	794.5238647460938	549.2094116210938	233.5159149169922	962.6948852539062	531.3427734375	329.6700439453125	657.0359497070312	570.3806762695312	328.7417602539062	725.4335327148438	589.9447631835938	261.6328735351562	722.2201538085938	567.5638427734375	306.3265380859375	1512.284912109375	375.9123840332031	485.8004760742188	1556.688720703125	298.6044006347656	435.1513366699219	1543.19482421875	414.5516357421875	357.1778869628906	1528.178955078125	223.4957122802734	458.3963012695312	866.2243041992188	138.3922882080078	307.1502685546875	862.2543334960938	485.3698120117188	420.1548156738281	916.5110473632812	460.5254821777344	507.8197021484375	917.2972412109375	235.5911560058594	602.95263671875	477.9379272460938	253.0883331298828	561.0980834960938	626.3335571289062	208.9169311523438	318.2265930175781	185.0724029541016	134.8200225830078	524.057373046875	368.02197265625	214.4489288330078	434.5263977050781	47.83228302001953	219.6812133789062	370.5866088867188	89.73413848876953	239.6554260253906	392.5493774414062	108.7660217285156	138.8235778808594	267.2459411621094	205.8603973388672	185.9459686279297	382.3560180664062	474.2944030761719	447.8570861816406	348.6457214355469	732.984375	497.0262145996094	326.8237609863281	46.55627822875977	372.4391479492188	397.7694396972656	328.1735229492188	427.4058532714844	528.6242065429688	35.92717742919922	424.6786193847656	484.3305969238281	41.25509643554688	360.9428100585938	421.4786071777344	39.6139030456543	434.6731872558594	302.7023620605469	37.94710540771484	306.8109436035156	
